PathFileType	4	(x/y/z)	S04_M20_T39.trc
DataRate	CameraRate	NumFrames	NumMarkers	Units	OrigDataRate	OrigDataStartFrame	OrigNumFrames
240	240	8	51	mm	240	65	519
Frame#	Time	Sternum			R.Acromium			L.Acromium			Top.Head			R.ASIS			L.ASIS			R.PSIS			L.PSIS			R.Great.Tro			L.Great.Tro			R.Iliac.Crest			L.Iliac.Crest			V.Sacral			R.Thigh.Upper.Post			R.Thigh.Lower.Ant			R.Thigh.Lower.Post			R.Thigh.Upper.Ant			R.Knee.Lat			R.Knee.Med			R.Shank.Upper.Post			R.Shank.Lower.Ant			R.Shank.Lower.Post			R.Shank.Upper.Ant			R.Ankle.Lat			R.Ankle.Med			R.Heel.Upper			R.Heel.Med			R.Heel.Lat			R.Toe.Lat			R.Toe.Med			R.Toe.Tip			L.Thigh.Upper.Post			L.Thigh.Lower.Ant			L.Thigh.Lower.Post			L.Thigh.Upper.Ant			L.Knee.Lat			L.Knee.Med			L.Shank.Upper.Post			L.Shank.Lower.Ant			L.Shank.Lower.Post			L.Shank.Upper.Ant			L.Ankle.Lat			L.Ankle.Med			L.Heel.Upper			L.Heel.Med			L.Heel.Lat			L.Toe.Lat			L.Toe.Med			L.Toe.Tip			Cervical.Spine			Back			
		X1	Y1	Z1	X2	Y2	Z2	X3	Y3	Z3	X4	Y4	Z4	X5	Y5	Z5	X6	Y6	Z6	X7	Y7	Z7	X8	Y8	Z8	X9	Y9	Z9	X10	Y10	Z10	X11	Y11	Z11	X12	Y12	Z12	X13	Y13	Z13	X14	Y14	Z14	X15	Y15	Z15	X16	Y16	Z16	X17	Y17	Z17	X18	Y18	Z18	X19	Y19	Z19	X20	Y20	Z20	X21	Y21	Z21	X22	Y22	Z22	X23	Y23	Z23	X24	Y24	Z24	X25	Y25	Z25	X26	Y26	Z26	X27	Y27	Z27	X28	Y28	Z28	X29	Y29	Z29	X30	Y30	Z30	X31	Y31	Z31	X32	Y32	Z32	X33	Y33	Z33	X34	Y34	Z34	X35	Y35	Z35	X36	Y36	Z36	X37	Y37	Z37	X38	Y38	Z38	X39	Y39	Z39	X40	Y40	Z40	X41	Y41	Z41	X42	Y42	Z42	X43	Y43	Z43	X44	Y44	Z44	X45	Y45	Z45	X46	Y46	Z46	X47	Y47	Z47	X48	Y48	Z48	X49	Y49	Z49	X50	Y50	Z50	X51	Y51	Z51	

65	0.26667	-399.9	1264.4	251.57	-527.09	1495.9	421.82	-541.23	1471.9	72.047	-492.07	1817.3	230.41	-434.5	972.43	400.7	-410.95	1001.8	150.15	-638.87	1018.9	280.61	-625.05	1027	201.88	-531.8	893.14	449.64	-516.04	917.53	71.431	-524.19	1070.2	436.38	-518.18	1075.3	92.603	-653.66	981.49	238.37	-524.13	630.56	444.04	-443.41	549.42	422.97	-520.21	540.07	432.22	-439.94	659.62	438.99	-507.76	475.14	428.4	-514.57	471.71	291.47	-723.49	395.34	417.02	-747.99	293.63	384.31	-780.47	354.82	403.65	-692.92	337.75	406.2	-868.96	281.59	387.56	-839.39	263.35	302.04	-921.57	316.77	323.68	-940.78	293.19	293.69	-950.65	299.15	355.92	-881.52	151.39	422.51	-850.41	114.78	310.92	-807.75	73.018	365.69	-473.47	674.34	93.346	-370.41	604.58	113.47	-442.44	592.45	114.03	-406.12	684.39	90.3	-381.32	513.75	130.94	-389.68	506.3	255.87	-457.82	328.34	130.16	-385.22	245.35	144.71	-449.66	251.66	142.15	-393.09	320.83	132.65	-405.78	97.713	162.89	-410	109.4	257.56	-485.92	68.441	208.32	-479.66	44.676	243.14	-481.17	39.214	181.85	-295.41	41.271	150.69	-269.38	52.624	267.2	-210.9	64.567	220.59	-585.03	1537.8	251.8	-661.09	1276.9	240.16
66	0.27083	-395.12	1265.3	251.19	-522.31	1496.8	421.52	-536.57	1472.9	71.75	-487.15	1818.2	230.13	-429.25	973.55	400.17	-406.34	1002.6	149.51	-633.87	1019.9	280.66	-620.23	1027.9	201.88	-526.07	894.18	449.46	-511.79	918.18	71.242	-518.98	1071.2	436.05	-513.54	1076.2	92.29	-648.77	982.4	238.47	-515.54	631.51	443.83	-434.07	551.23	422.41	-510.74	541.08	431.87	-431.68	661.43	438.61	-497.67	476.41	427.82	-504.44	473.11	290.84	-713.04	395.97	416.38	-737.12	294.05	384.02	-769.85	355.22	403.12	-682.23	338.45	405.79	-858.03	281.51	387.19	-828.44	263.21	301.74	-911.11	316	323.24	-930.16	292.09	293.34	-939.98	298.24	355.58	-869.37	151.39	422.58	-838.14	114.63	311.1	-794.98	73.557	365.94	-470.4	674.87	93.261	-367.83	604.38	113.4	-439.93	592.8	113.9	-402.98	684.46	90.179	-379.38	513.59	130.91	-387.99	506.18	255.75	-456.73	328.5	130.23	-384.43	245.25	144.77	-448.85	251.81	142.26	-392.02	320.75	132.69	-405.63	97.837	163.06	-409.82	109.39	257.74	-485.88	68.531	208.44	-479.62	44.708	243.21	-481.12	39.372	181.91	-295.36	41.239	150.66	-269.27	52.238	267.26	-210.79	64.102	220.62	-580.23	1538.7	251.52	-656.25	1277.7	239.8
67	0.275	-390.36	1266.3	250.81	-517.55	1497.7	421.23	-531.93	1473.9	71.46	-482.25	1819.1	229.87	-424.01	974.67	399.65	-401.73	1003.3	148.88	-628.88	1020.8	280.72	-615.42	1028.7	201.89	-520.36	895.24	449.31	-507.57	918.83	71.068	-513.78	1072.3	435.72	-508.9	1077.1	91.983	-643.89	983.31	238.57	-506.99	632.51	443.64	-424.76	553.09	421.85	-501.3	542.14	431.54	-423.45	663.28	438.24	-487.64	477.73	427.25	-494.41	474.59	290.22	-702.59	396.5	415.76	-726.16	294.37	383.72	-759.2	355.45	402.59	-671.5	339.07	405.38	-847.02	281.2	386.82	-817.4	262.9	301.45	-900.57	315	322.83	-919.43	290.76	292.99	-929.23	297.07	355.26	-857.06	151.14	422.59	-825.67	114.32	311.19	-781.98	73.939	366.08	-467.4	675.4	93.181	-365.32	604.18	113.33	-437.49	593.15	113.76	-399.9	684.53	90.051	-377.52	513.44	130.85	-386.38	506.07	255.61	-455.69	328.66	130.29	-383.68	245.15	144.81	-448.08	251.96	142.36	-391.01	320.67	132.7	-405.48	97.957	163.22	-409.64	109.4	257.9	-485.83	68.622	208.56	-479.59	44.741	243.27	-481.07	39.529	181.96	-295.31	41.207	150.63	-269.16	51.871	267.32	-210.7	63.655	220.64	-575.45	1539.6	251.25	-651.43	1278.6	239.44
68	0.27917	-385.61	1267.2	250.44	-512.8	1498.6	420.94	-527.3	1474.8	71.175	-477.39	1820	229.64	-418.79	975.8	399.13	-397.13	1004.1	148.25	-623.89	1021.7	280.79	-610.61	1029.6	201.92	-514.67	896.31	449.17	-503.38	919.48	70.906	-508.61	1073.3	435.41	-504.26	1078.1	91.681	-639.02	984.23	238.67	-498.46	633.55	443.47	-415.51	555.01	421.29	-491.9	543.26	431.22	-415.26	665.18	437.87	-477.64	479.1	426.67	-484.47	476.11	289.61	-692.13	396.91	415.16	-715.12	294.57	383.42	-748.51	355.54	402.07	-660.72	339.61	404.97	-835.91	280.67	386.46	-806.26	262.42	301.16	-889.96	313.75	322.46	-908.61	289.22	292.66	-918.38	295.65	354.98	-844.57	150.64	422.53	-812.99	113.87	311.2	-768.75	74.171	366.11	-464.46	675.94	93.107	-362.88	603.97	113.23	-435.12	593.5	113.61	-396.88	684.61	89.916	-375.72	513.29	130.78	-384.85	505.95	255.47	-454.71	328.81	130.34	-382.98	245.07	144.84	-447.36	252.12	142.45	-390.05	320.6	132.71	-405.35	98.072	163.38	-409.47	109.41	258.06	-485.79	68.714	208.67	-479.55	44.775	243.32	-481.02	39.683	182.01	-295.26	41.176	150.6	-269.06	51.521	267.37	-210.6	63.224	220.65	-570.67	1540.5	250.98	-646.61	1279.4	239.1
69	0.28333	-380.86	1268.2	250.07	-508.05	1499.4	420.66	-522.69	1475.8	70.897	-472.56	1820.9	229.44	-413.58	976.91	398.62	-392.54	1004.8	147.62	-618.92	1022.7	280.86	-605.82	1030.5	201.95	-509	897.39	449.06	-499.22	920.13	70.758	-503.45	1074.3	435.1	-499.61	1079	91.386	-634.15	985.13	238.78	-489.96	634.64	443.32	-406.29	556.98	420.72	-482.53	544.44	430.92	-407.1	667.11	437.51	-467.7	480.52	426.11	-474.64	477.69	289.02	-681.68	397.21	414.57	-704.01	294.66	383.11	-737.8	355.47	401.57	-649.91	340.06	404.56	-824.72	279.92	386.1	-795.02	261.78	300.86	-879.27	312.28	322.11	-897.68	287.46	292.34	-907.44	293.98	354.71	-831.91	149.92	422.41	-800.11	113.28	311.13	-755.3	74.261	366.04	-461.58	676.49	93.041	-360.5	603.77	113.12	-432.83	593.86	113.47	-393.91	684.69	89.774	-374	513.15	130.69	-383.39	505.84	255.33	-453.77	328.97	130.39	-382.32	244.99	144.85	-446.68	252.27	142.54	-389.14	320.54	132.7	-405.21	98.183	163.53	-409.31	109.43	258.21	-485.75	68.807	208.78	-479.52	44.81	243.37	-480.97	39.836	182.06	-295.21	41.144	150.58	-268.96	51.188	267.42	-210.51	62.81	220.66	-565.91	1541.4	250.72	-641.8	1280.2	238.76
70	0.2875	-376.13	1269.1	249.71	-503.3	1500.3	420.38	-518.09	1476.7	70.624	-467.76	1821.7	229.26	-408.37	978.03	398.12	-387.96	1005.5	147	-613.96	1023.6	280.95	-601.04	1031.3	201.99	-503.35	898.47	448.95	-495.08	920.77	70.622	-498.3	1075.3	434.8	-494.96	1079.9	91.098	-629.29	986.03	238.89	-481.48	635.78	443.2	-397.12	558.99	420.16	-473.19	545.66	430.64	-398.98	669.08	437.14	-457.8	481.98	425.55	-464.92	479.3	288.43	-671.22	397.41	414	-692.83	294.64	382.79	-727.05	355.25	401.06	-639.06	340.44	404.15	-813.45	278.96	385.74	-783.69	260.99	300.55	-868.51	310.59	321.79	-886.66	285.48	292.02	-896.41	292.06	354.47	-819.08	148.98	422.23	-787.04	112.54	311	-741.64	74.218	365.89	-458.77	677.04	92.985	-358.2	603.56	113	-430.6	594.22	113.33	-390.99	684.77	89.625	-372.35	513.01	130.58	-381.99	505.73	255.18	-452.89	329.13	130.44	-381.7	244.92	144.85	-446.03	252.43	142.62	-388.28	320.48	132.69	-405.09	98.289	163.67	-409.16	109.45	258.36	-485.7	68.902	208.88	-479.49	44.845	243.42	-480.92	39.987	182.11	-295.17	41.112	150.55	-268.86	50.872	267.46	-210.42	62.412	220.66	-561.16	1542.2	250.47	-637	1281	238.43
71	0.29167	-371.4	1270.1	249.36	-498.57	1501.1	420.11	-513.5	1477.7	70.357	-462.99	1822.6	229.12	-403.18	979.13	397.62	-383.39	1006.2	146.38	-609.02	1024.5	281.04	-596.28	1032.2	202.04	-497.7	899.55	448.86	-490.96	921.4	70.497	-493.17	1076.3	434.5	-490.31	1080.8	90.816	-624.43	986.92	239.01	-473.02	636.94	443.1	-388	561.05	419.59	-463.88	546.93	430.38	-390.89	671.07	436.77	-447.95	483.47	425	-455.31	480.95	287.86	-660.77	397.49	413.46	-681.57	294.51	382.46	-716.27	354.89	400.57	-628.17	340.73	403.73	-802.08	277.8	385.38	-772.27	260.04	300.23	-857.67	308.67	321.48	-875.53	283.29	291.7	-885.29	289.92	354.24	-806.08	147.84	422.02	-773.77	111.67	310.8	-727.76	74.053	365.65	-456.01	677.6	92.939	-355.96	603.35	112.85	-428.44	594.59	113.19	-388.14	684.86	89.468	-370.76	512.88	130.45	-380.64	505.63	255.03	-452.06	329.3	130.48	-381.12	244.86	144.83	-445.42	252.58	142.7	-387.46	320.43	132.66	-404.97	98.39	163.81	-409.01	109.48	258.49	-485.66	68.998	208.98	-479.47	44.882	243.46	-480.87	40.135	182.16	-295.12	41.081	150.52	-268.76	50.572	267.5	-210.34	62.03	220.66	-556.41	1543.1	250.22	-632.22	1281.8	238.1
72	0.29583	-366.68	1271	249.01	-493.84	1502	419.84	-508.91	1478.6	70.096	-458.24	1823.4	229	-397.99	980.22	397.11	-378.83	1006.9	145.75	-604.08	1025.4	281.14	-591.53	1033	202.11	-492.07	900.62	448.78	-486.86	922.03	70.384	-488.06	1077.3	434.21	-485.65	1081.7	90.543	-619.58	987.79	239.13	-464.6	638.15	443.01	-378.92	563.15	419.02	-454.61	548.24	430.13	-382.83	673.1	436.39	-438.16	485.01	424.46	-445.8	482.62	287.3	-650.32	397.47	412.94	-670.24	294.28	382.12	-705.47	354.38	400.09	-617.24	340.94	403.31	-790.63	276.45	385.02	-760.75	258.95	299.89	-846.76	306.55	321.17	-864.31	280.9	291.39	-874.07	287.55	354.01	-792.92	146.52	421.76	-760.33	110.68	310.56	-713.69	73.774	365.36	-453.32	678.15	92.906	-353.78	603.14	112.69	-426.34	594.95	113.05	-385.35	684.94	89.305	-369.23	512.76	130.31	-379.33	505.54	254.87	-451.27	329.47	130.52	-380.58	244.81	144.8	-444.85	252.74	142.78	-386.69	320.39	132.63	-404.85	98.487	163.95	-408.87	109.51	258.62	-485.62	69.096	209.07	-479.44	44.92	243.5	-480.82	40.282	182.21	-295.08	41.049	150.5	-268.67	50.288	267.53	-210.25	61.664	220.65	-551.68	1543.9	249.98	-627.44	1282.6	237.79
